HIERARCHY
ROOT Hips
{
	OFFSET 0.000000 0.000000 0.000000
	CHANNELS 6 Xposition Yposition Zposition Yrotation Xrotation Zrotation
	JOINT Chest
	{
		OFFSET 0.000000 -0.009281 11.569106
		CHANNELS 3 Yrotation Xrotation Zrotation
		JOINT Chest2
		{
			OFFSET -0.000000 0.016865 9.269641
			CHANNELS 3 Yrotation Xrotation Zrotation
			JOINT Chest3
			{
				OFFSET -0.000000 0.000001 8.374491
				CHANNELS 3 Yrotation Xrotation Zrotation
				JOINT Chest4
				{
					OFFSET -0.000000 0.000001 8.374493
					CHANNELS 3 Yrotation Xrotation Zrotation
					JOINT Neck
					{
						OFFSET -0.000000 0.000002 12.152554
						CHANNELS 3 Yrotation Xrotation Zrotation
						JOINT Head
						{
							OFFSET -0.000000 0.040101 7.802319
							CHANNELS 3 Yrotation Xrotation Zrotation
							End Site
							{
								OFFSET -0.000000 0.020947 14.853096
							}
						}
					}
					JOINT RightCollar
					{
						OFFSET 2.894404 0.000001 6.791374
						CHANNELS 3 Yrotation Xrotation Zrotation
						JOINT RightShoulder
						{
							OFFSET 13.574684 0.000001 0.000000
							CHANNELS 3 Yrotation Xrotation Zrotation
							JOINT RightElbow
							{
								OFFSET 23.923903 0.000002 0.000000
								CHANNELS 3 Yrotation Xrotation Zrotation
								JOINT RightWrist
								{
									OFFSET 19.846718 0.012767 0.000000
									CHANNELS 3 Yrotation Xrotation Zrotation
									End Site
									{
										OFFSET 14.973145 0.000001 0.000000
									}
								}
							}
						}
					}
					JOINT LeftCollar
					{
						OFFSET -2.894404 0.000001 6.791374
						CHANNELS 3 Yrotation Xrotation Zrotation
						JOINT LeftShoulder
						{
							OFFSET -13.574684 -0.000001 0.000000
							CHANNELS 3 Yrotation Xrotation Zrotation
							JOINT LeftElbow
							{
								OFFSET -23.923903 -0.000002 0.000000
								CHANNELS 3 Yrotation Xrotation Zrotation
								JOINT LeftWrist
								{
									OFFSET -19.846718 0.012763 0.000000
									CHANNELS 3 Yrotation Xrotation Zrotation
									End Site
									{
										OFFSET -14.973145 -0.000001 0.000000
									}
								}
							}
						}
					}
				}
			}
		}
	}
	JOINT RightHip
	{
		OFFSET 9.469263 0.004643 0.045487
		CHANNELS 3 Yrotation Xrotation Zrotation
		JOINT RightKnee
		{
			OFFSET 0.000000 0.002661 -40.478676
			CHANNELS 3 Yrotation Xrotation Zrotation
			JOINT RightAnkle
			{
				OFFSET 0.000000 0.049106 -35.224068
				CHANNELS 3 Yrotation Xrotation Zrotation
				JOINT RightToe
				{
					OFFSET -0.000001 12.539529 -6.151390
					CHANNELS 3 Yrotation Xrotation Zrotation
					End Site
					{
						OFFSET -0.000001 5.044994 -1.291870
					}
				}
			}
		}
	}
	JOINT LeftHip
	{
		OFFSET -9.469263 0.004641 0.045487
		CHANNELS 3 Yrotation Xrotation Zrotation
		JOINT LeftKnee
		{
			OFFSET 0.000000 0.002661 -40.478676
			CHANNELS 3 Yrotation Xrotation Zrotation
			JOINT LeftAnkle
			{
				OFFSET 0.000000 0.049106 -35.224068
				CHANNELS 3 Yrotation Xrotation Zrotation
				JOINT LeftToe
				{
					OFFSET -0.000001 12.539529 -6.151390
					CHANNELS 3 Yrotation Xrotation Zrotation
					End Site
					{
						OFFSET -0.000001 5.044994 -1.291870
					}
				}
			}
		}
	}
}
MOTION
Frames: 5
Frame Time: 0.016667
10.597812 5.529791 82.944260 -8.224086 -3.987579 -114.558965 0.581886 -4.931164 0.005451 0.257762 -2.188536 0.035812 0.257762 -2.188536 0.035813 0.193426 -1.641386 0.027781 -1.654327 -22.287216 2.361109 -2.335930 -5.191822 3.807626 1.969304 -0.835432 -2.722140 78.277588 -20.661191 36.445152 -9.583029 -25.360532 55.720922 -43.330174 30.371730 63.106583 -10.648137 -1.347293 -10.322058 -74.370788 0.436250 -41.844580 -40.590694 31.750472 -36.301930 -12.324855 40.204744 -1.741248 -1.343231 -9.364803 0.260281 0.676928 -5.625924 -2.255403 0.890367 5.507674 5.148662 -0.001005 -0.019091 -0.023717 -1.123077 -12.030969 1.571283 0.434680 -2.195582 4.767040 0.127683 5.203219 -1.657404 0.019745 -0.011705 0.022881 
10.604204 5.540361 82.940750 -8.231084 -4.016691 -114.663194 0.582775 -4.940114 -0.000198 0.258465 -2.193250 0.032392 0.258464 -2.193250 0.032395 0.193941 -1.644924 0.025218 -1.611477 -22.266444 2.362466 -2.257760 -5.153998 3.821817 1.971476 -0.840346 -2.749079 78.264911 -20.542829 36.145306 -9.104969 -25.566899 55.595254 -43.376967 30.440070 63.022859 -10.662322 -1.345939 -10.312413 -74.382713 0.499461 -41.844836 -40.524694 31.787837 -36.262840 -12.360596 40.208849 -1.760508 -1.345345 -9.328867 0.335619 0.669270 -5.718093 -2.236856 0.897660 5.535990 5.162482 0.003173 -0.013765 -0.021880 -1.122801 -12.038961 1.655424 0.421539 -2.237266 4.814017 0.129256 5.242340 -1.681225 0.023263 -0.011756 0.021800 
10.608356 5.550264 82.936691 -8.239693 -4.045728 -114.757819 0.591458 -4.935377 -0.016938 0.262406 -2.191692 0.024190 0.262406 -2.191692 0.024191 0.196867 -1.643759 0.019083 -1.584099 -22.251807 2.372046 -2.205371 -5.127327 3.846626 1.971238 -0.829775 -2.788038 78.240869 -20.457736 35.840940 -8.382536 -25.757688 55.329706 -43.445256 30.501678 62.935890 -10.672008 -1.372468 -10.299405 -74.395295 0.563567 -41.835950 -40.490758 31.842895 -36.239379 -12.418829 40.239581 -1.797452 -1.351295 -9.281238 0.381175 0.672578 -5.832909 -2.180185 0.898336 5.581914 5.167644 0.004607 -0.015918 -0.021905 -1.124364 -12.043708 1.720300 0.412174 -2.291201 4.862682 0.128965 5.293552 -1.684374 0.026699 -0.015937 0.021554 
10.611253 5.561903 82.932312 -8.250451 -4.073370 -114.851953 0.604989 -4.931372 -0.037848 0.268833 -2.190592 0.013845 0.268833 -2.190592 0.013847 0.201650 -1.642938 0.011352 -1.569745 -22.238075 2.388082 -2.174723 -5.102124 3.879504 1.950359 -0.831827 -2.834768 78.160573 -20.417360 35.561824 -7.930885 -25.989918 55.176280 -43.470937 30.519304 62.894827 -10.689722 -1.377341 -10.277942 -74.395062 0.599726 -41.799795 -40.469868 31.905029 -36.234078 -12.442416 40.266506 -1.822418 -1.368642 -9.223750 0.418108 0.692952 -5.969476 -2.100281 0.889950 5.640494 5.166902 0.005184 -0.018584 -0.022344 -1.127842 -12.044852 1.784972 0.402168 -2.352920 4.901455 0.131927 5.347432 -1.684349 0.027806 -0.019387 0.021584 
10.614423 5.572913 82.928017 -8.273750 -4.101456 -114.939817 0.612681 -4.944261 -0.052596 0.271924 -2.196648 0.006429 0.271924 -2.196647 0.006429 0.203941 -1.647483 0.005798 -1.545503 -22.219860 2.396676 -2.128183 -5.068783 3.901686 1.937047 -0.807543 -2.865601 78.021565 -20.414467 35.272917 -8.020360 -26.241022 55.258976 -43.419437 30.426946 62.881795 -10.687189 -1.358389 -10.271147 -74.390725 0.614621 -41.778618 -40.410804 31.955843 -36.192117 -12.447182 40.268722 -1.841485 -1.383295 -9.175087 0.443331 0.704659 -6.114651 -2.008535 0.880738 5.704054 5.139771 0.006993 -0.019786 -0.022392 -1.134055 -12.053190 1.835834 0.390468 -2.423660 4.943162 0.138067 5.403347 -1.684938 0.026661 -0.020174 0.022025 
